<svg width="100" height="115" viewBox="0 0 100 115" fill="none" xmlns="http://www.w3.org/2000/svg">
<path fill-rule="evenodd" clip-rule="evenodd" d="M33.1663 58.3166C47.0565 58.3166 58.3166 47.0565 58.3166 33.1663C58.3166 19.2762 47.0565 8.01603 33.1663 8.01603C19.2762 8.01603 8.01603 19.2762 8.01603 33.1663C8.01603 47.0565 19.2762 58.3166 33.1663 58.3166ZM50.9019 61.1973C60.1763 55.317 66.3327 44.9606 66.3327 33.1663C66.3327 14.8491 51.4836 0 33.1663 0C14.8491 0 0 14.8491 0 33.1663C0 44.3554 5.54074 54.2504 14.0282 60.2572L14.0282 110.421C14.0282 112.634 15.8226 114.429 18.0362 114.429C20.2498 114.429 22.0442 112.634 22.0442 110.421L22.0442 64.4218C25.5209 65.659 29.265 66.3327 33.1663 66.3327C36.5483 66.3327 39.812 65.8265 42.8858 64.8857V101.904V101.952L42.887 102C42.889 102.083 42.8906 102.176 42.8923 102.279C42.9147 103.593 42.9635 106.456 44.2375 108.998C44.9855 110.49 46.1646 111.926 47.945 112.952C49.6979 113.963 51.7759 114.429 54.1083 114.429C55.5446 114.429 57.9811 114.433 60.972 114.439L60.9789 114.439C69.61 114.454 82.8531 114.479 90.0079 114.429C91.8689 114.416 93.6575 114.132 95.2335 113.352C96.9063 112.524 98.0857 111.262 98.8301 109.764C99.5225 108.37 99.7755 106.9 99.8894 105.658C100 104.449 100 103.151 100 102V102L100 101.904V101.875V101.846V101.816V101.786V101.756V101.725V101.693V101.662V101.63V101.597V101.564V101.531V101.497V101.463V101.429V101.394V101.358V101.323V101.287V101.25V101.213V101.176V101.139V101.101V101.062V101.023V100.984V100.945V100.905V100.865V100.824V100.783V100.742V100.7V100.658V100.615V100.572V100.529V100.485V100.441V100.397V100.352V100.307V100.262V100.216V100.17V100.123V100.077V100.029V99.9817V99.9338V99.8855V99.8369V99.7879V99.7385V99.6889V99.6388V99.5884V99.5377V99.4866V99.4352V99.3835V99.3314V99.279V99.2262V99.1731V99.1197V99.0659V99.0118V98.9573V98.9026V98.8475V98.7921V98.7363V98.6802V98.6238V98.5671V98.51V98.4527V98.395V98.3369V98.2786V98.22V98.161V98.1017V98.0421V97.9822V97.922V97.8615V97.8006V97.7395V97.678V97.6163V97.5542V97.4918V97.4292V97.3662V97.3029V97.2393V97.1755V97.1113V97.0469V96.9821V96.9171V96.8517V96.7861V96.7202V96.654V96.5875V96.5207V96.4536V96.3863V96.3186V96.2507V96.1825V96.114V96.0453V95.9762V95.9069V95.8373V95.7675V95.6974V95.627V95.5563V95.4854V95.4141V95.3427V95.2709V95.1989V95.1266V95.0541V94.9813V94.9083V94.8349V94.7614V94.6875V94.6135V94.5391V94.4645V94.3897V94.3146V94.2393V94.1637V94.0878V94.0117V93.9354V93.8588V93.782V93.7049V93.6276V93.5501V93.4723V93.3943V93.316V93.2376V93.1588V93.0799V93.0007V92.9213V92.8416V92.7618V92.6817V92.6013V92.5208V92.44V92.359V92.2778V92.1963V92.1147V92.0328V91.9507V91.8684V91.7859V91.7031V91.6202V91.537V91.4537V91.3701V91.2863V91.2023V91.1181V91.0337V90.9491V90.8643V90.7793V90.694V90.6086V90.523V90.4372V90.3512V90.265V90.1787V90.0921V90.0053V89.9184V89.8312V89.7439V89.6564V89.5687V89.4808V89.3927V89.3045V89.216V89.1274V89.0386V88.9497V88.8605V88.7712V88.6817V88.5921V88.5023V88.4122V88.3221V88.2317V88.1412V88.0506V87.9597V87.8687V87.7776V87.6862V87.5948V87.5031V87.4113V87.3194V87.2273V87.135V87.0426V86.95V86.8573V86.7645V86.6714V86.5783V86.485V86.3915V86.2979V86.2042V86.1103V86.0163V85.9221V85.8278V85.7334V85.6388V85.5441V85.4492V85.3543V85.2592V85.1639V85.0686V84.9731V84.8775V84.7817V84.6859V84.5899V84.4938V84.3975V84.3012V84.2047V84.1081V84.0114V83.9146V83.8176V83.7206V83.6234V83.5262V83.4288V83.3313V83.2337V83.136V83.0382V82.9403V82.8422V82.7441V82.6459V82.5476V82.4492V82.3507V82.2521V82.1534V82.0546V81.9557V81.8567V81.7576V81.6585V81.5592V81.4599V81.3605V81.261V81.1614V81.0617V80.962V80.8621V80.7622V80.6622V80.5622V80.462V80.3618V80.2615V80.1612V80.0607V79.9602V79.8597V79.759V79.6583V79.5576V79.4567V79.3559V79.2549V79.1539V79.0528V78.9517V78.8505V78.7492V78.6479V78.5466V78.4452V78.3437V78.2422V78.1406V78.039V77.9374V77.8357V77.7339V77.6322V77.5303V77.4285V77.3265V77.2246V77.1226V77.0206V76.9185V76.8164V76.7143V76.6121V76.51V76.4077V76.3055V76.2032V76.1009V75.9986V75.8962V75.7939V75.6915V75.5891V75.4866V75.3842V75.2817V75.1792V75.0767V74.9742V74.8717V74.7691V74.6666V74.564V74.4614V74.3589V74.2563V74.1537V74.0511V73.9485V73.8459V73.7433V73.6407V73.5381V73.4356V73.333V73.2304V73.1278V73.0253V72.9227V72.8202V72.7176V72.6151V72.5126V72.4101V72.3076V72.2052V72.1028V72.0003V71.8979V71.7955V71.6932V71.5909V71.4886V71.3863V71.284V71.1818V71.0796V70.9774V70.8753V70.7732V70.6711V70.5691V70.4671V70.3652V70.2632V70.1614V70.0595V69.9577V69.856V69.7543V69.6526V69.551V69.4494V69.3479V69.2464V69.145V69.0436V68.9423V68.8411V68.7399V68.6387V68.5376V68.4366V68.3356V68.2347V68.1339V68.0331V67.9324V67.8318V67.7312V67.6307V67.5302V67.4298V67.3295V67.2293V67.1292V67.0291V66.9291V66.8291V66.7293V66.6295V66.5298V66.4302V66.3307V66.2313V66.1319V66.0327V65.9335V65.8344V65.7354V65.6365V65.5377V65.439V65.3403V65.2418V65.1434V65.045V64.9468V64.8487V64.7506V64.6527V64.5549V64.4571V64.3595V64.262V64.1646V64.0673V63.9701V63.873V63.7761V63.6792V63.5825V63.4859V63.3894V63.293V63.1968V63.1006V63.0046V62.9087V62.8129V62.7173V62.6218V62.5264V62.4311V62.336V62.241V62.1461V62.0514V61.9568V61.8623V61.768V61.6738V61.5798V61.4859V61.3921V61.2985V61.205V61.1116V61.0185V60.9254V60.8325V60.7398V60.6472V60.5547V60.4624V60.3703V60.2783V60.1865V60.0948V60.0033V59.9119V59.8207V59.7297V59.6388V59.5481V59.4576V59.3672V59.277V59.187V59.0971V59.0074V58.9179C100 56.7043 98.2056 54.9099 95.9921 54.9099C93.7785 54.9099 91.984 56.7043 91.984 58.9179V59.0074V59.0971V59.187V59.277V59.3672V59.4576V59.5481V59.6388V59.7297V59.8207V59.9119V60.0033V60.0948V60.1865V60.2783V60.3703V60.4624V60.5547V60.6472V60.7398V60.8325V60.9254V61.0185V61.1116V61.205V61.2985V61.3921V61.4859V61.5798V61.6738V61.768V61.8623V61.9568V62.0514V62.1461V62.241V62.336V62.4311V62.5264V62.6218V62.7173V62.8129V62.9087V63.0046V63.1006V63.1968V63.293V63.3894V63.4859V63.5825V63.6792V63.7761V63.873V63.9701V64.0673V64.1646V64.262V64.3595V64.4571V64.5549V64.6527V64.7506V64.8487V64.9468V65.045V65.1434V65.2418V65.3403V65.439V65.5377V65.6365V65.7354V65.8344V65.9335V66.0327V66.1319V66.2313V66.3307V66.4302V66.5298V66.6295V66.7293V66.8291V66.9291V67.0291V67.1292V67.2293V67.3295V67.4298V67.5302V67.6307V67.7312V67.8318V67.9324V68.0331V68.1339V68.2347V68.3356V68.4366V68.5376V68.6387V68.7399V68.8411V68.9423V69.0436V69.145V69.2464V69.3479V69.4494V69.551V69.6526V69.7543V69.856V69.9577V70.0595V70.1614V70.2632V70.3652V70.4671V70.5691V70.6711V70.7732V70.8753V70.9774V71.0796V71.1818V71.284V71.3863V71.4886V71.5909V71.6932V71.7955V71.8979V72.0003V72.1028V72.2052V72.3076V72.4101V72.5126V72.6151V72.7176V72.8202V72.9227V73.0253V73.1278V73.2304V73.333V73.4356V73.5381V73.6407V73.7433V73.8459V73.9485V74.0511V74.1537V74.2563V74.3488L50.9019 74.3488V61.1973ZM50.9019 82.3648V101.855C50.941 103.458 50.9944 104.589 51.4039 105.406C51.5493 105.696 51.7104 105.87 51.9487 106.008C52.2144 106.161 52.8334 106.413 54.1083 106.413C55.5693 106.413 58.0316 106.417 61.0455 106.423C69.6778 106.439 82.8352 106.462 89.9522 106.413C91.0479 106.405 91.5218 106.24 91.6612 106.176C91.7232 106.04 91.8369 105.689 91.9068 104.926C91.9808 104.12 91.984 103.174 91.984 101.904V101.875V101.846V101.816V101.786V101.756V101.725V101.693V101.662V101.63V101.597V101.564V101.531V101.497V101.463V101.429V101.394V101.358V101.323V101.287V101.25V101.213V101.176V101.139V101.101V101.062V101.023V100.984V100.945V100.905V100.865V100.824V100.783V100.742V100.7V100.658V100.615V100.572V100.529V100.485V100.441V100.397V100.352V100.307V100.262V100.216V100.17V100.123V100.077V100.029V99.9817V99.9338V99.8855V99.8369V99.7879V99.7385V99.6889V99.6388V99.5884V99.5377V99.4866V99.4352V99.3835V99.3314V99.279V99.2262V99.1731V99.1197V99.0659V99.0118V98.9573V98.9026V98.8475V98.7921V98.7363V98.6802V98.6238V98.5671V98.51V98.4527V98.395V98.3369V98.2786V98.22V98.161V98.1017V98.0421V97.9822V97.922V97.8615V97.8006V97.7395V97.678V97.6163V97.5542V97.4918V97.4292V97.3662V97.3029V97.2393V97.1755V97.1113V97.0469V96.9821V96.9171V96.8517V96.7861V96.7202V96.654V96.5875V96.5207V96.4536V96.3863V96.3186V96.2507V96.1825V96.114V96.0453V95.9762V95.9069V95.8373V95.7675V95.6974V95.627V95.5563V95.4854V95.4141V95.3427V95.2709V95.1989V95.1266V95.0541V94.9813V94.9083V94.8349V94.7614V94.6875V94.6135V94.5391V94.4645V94.3897V94.3146V94.2393V94.1637V94.0878V94.0117V93.9354V93.8588V93.782V93.7049V93.6276V93.5501V93.4723V93.3943V93.316V93.2376V93.1588V93.0799V93.0007V92.9213V92.8416V92.7618V92.6817V92.6013V92.5208V92.44V92.359V92.2778V92.1963V92.1147V92.0328V91.9507V91.8684V91.7859V91.7031V91.6202V91.537V91.4537V91.3701V91.2863V91.2023V91.1181V91.0337V90.9491V90.8643V90.7793V90.694V90.6086V90.523V90.4372V90.3512V90.265V90.1787V90.0921V90.0053V89.9184V89.8312V89.7439V89.6564V89.5687V89.4808V89.3927V89.3045V89.216V89.1274V89.0386V88.9497V88.8605V88.7712V88.6817V88.5921V88.5023V88.4122V88.3221V88.2317V88.1412V88.0506V87.9597V87.8687V87.7776V87.6862V87.5948V87.5031V87.4113V87.3194V87.2273V87.135V87.0426V86.95V86.8573V86.7645V86.6714V86.5783V86.485V86.3915V86.2979V86.2042V86.1103V86.0163V85.9221V85.8278V85.7334V85.6388V85.5441V85.4492V85.3543V85.2592V85.1639V85.0686V84.9731V84.8775V84.7817V84.6859V84.5899V84.4938V84.3975V84.3012V84.2047V84.1081V84.0114V83.9146V83.8176V83.7206V83.6234V83.5262V83.4288V83.3313V83.2337V83.136V83.0382V82.9403V82.8422V82.7441V82.6459V82.5476V82.4492V82.3648H50.9019ZM56.513 93.1863C56.513 90.9727 58.3074 89.1783 60.521 89.1783H82.3647C84.5783 89.1783 86.3727 90.9727 86.3727 93.1863C86.3727 95.3999 84.5783 97.1943 82.3647 97.1943L60.521 97.1943C58.3074 97.1943 56.513 95.3999 56.513 93.1863Z" fill="black"/>
</svg>
