<svg width="100" height="115" viewBox="0 0 100 115" fill="none" xmlns="http://www.w3.org/2000/svg">
<path fill-rule="evenodd" clip-rule="evenodd" d="M33.1663 58.3166C47.0565 58.3166 58.3166 47.0565 58.3166 33.1663C58.3166 19.2762 47.0565 8.01603 33.1663 8.01603C19.2762 8.01603 8.01603 19.2762 8.01603 33.1663C8.01603 47.0565 19.2762 58.3166 33.1663 58.3166ZM50.9018 61.1974C60.1763 55.317 66.3327 44.9606 66.3327 33.1663C66.3327 14.8491 51.4836 0 33.1663 0C14.8491 0 0 14.8491 0 33.1663C0 44.3554 5.5407 54.2503 14.0281 60.2572L14.0281 110.421C14.0281 112.634 15.8225 114.429 18.0361 114.429C20.2497 114.429 22.0441 112.634 22.0441 110.421L22.0441 64.4218C25.5209 65.659 29.2649 66.3327 33.1663 66.3327C36.5483 66.3327 39.8119 65.8265 42.8858 64.8857V101.904V101.952L42.887 102C42.8889 102.083 42.8905 102.176 42.8923 102.279C42.9147 103.593 42.9635 106.456 44.2375 108.998C44.9855 110.49 46.1646 111.926 47.9449 112.952C49.6978 113.963 51.7759 114.429 54.1082 114.429C55.5446 114.429 57.981 114.433 60.972 114.439C69.6029 114.454 82.8511 114.478 90.0078 114.429C91.8688 114.416 93.6574 114.132 95.2335 113.352C96.9062 112.524 98.0857 111.262 98.83 109.763C99.5225 108.37 99.7754 106.9 99.8893 105.658C100 104.449 100 103.151 100 102V102L100 101.904V101.875V101.846V101.816V101.786V101.755V101.725V101.693V101.662V101.629V101.597V101.564V101.531V101.497V101.463V101.429V101.394V101.358V101.323V101.287V101.25V101.213V101.176V101.139V101.101V101.062V101.023V100.984V100.945V100.905V100.865V100.824V100.783V100.742V100.7V100.658V100.615V100.572V100.529V100.485V100.441V100.397V100.352V100.307V100.262V100.216V100.17V100.123V100.077V100.029V99.9817V99.9338V99.8855V99.8368V99.7878V99.7385V99.6888V99.6388V99.5884V99.5377V99.4866V99.4352V99.3835V99.3314V99.2789V99.2262V99.1731V99.1196V99.0659V99.0117V98.9573V98.9025V98.8474V98.792V98.7363V98.6802V98.6238V98.567V98.51V98.4526V98.3949V98.3369V98.2786V98.2199V98.1609V98.1017V98.0421V97.9822V97.922V97.8614V97.8006V97.7394V97.678V97.6162V97.5542V97.4918V97.4291V97.3661V97.3029V97.2393V97.1754V97.1113V97.0468V96.9821V96.917V96.8517V96.786V96.7201V96.6539V96.5874V96.5206V96.4536V96.3862V96.3186V96.2507V96.1825V96.114V96.0452V95.9762V95.9069V95.8373V95.7675V95.6973V95.6269V95.5563V95.4853V95.4141V95.3426V95.2709V95.1989V95.1266V95.0541V94.9813V94.9082V94.8349V94.7613V94.6875V94.6134V94.5391V94.4645V94.3897V94.3146V94.2392V94.1636V94.0878V94.0117V93.9354V93.8588V93.782V93.7049V93.6276V93.5501V93.4723V93.3943V93.316V93.2375V93.1588V93.0798V93.0007V92.9212V92.8416V92.7617V92.6816V92.6013V92.5207V92.44V92.359V92.2777V92.1963V92.1146V92.0328V91.9507V91.8684V91.7858V91.7031V91.6201V91.537V91.4536V91.37V91.2863V91.2023V91.1181V91.0337V90.949V90.8642V90.7792V90.694V90.6086V90.523V90.4372V90.3512V90.265V90.1786V90.0921V90.0053V89.9183V89.8312V89.7439V89.6563V89.5686V89.4808V89.3927V89.3044V89.216V89.1274V89.0386V88.9496V88.8605V88.7712V88.6817V88.592V88.5022V88.4122V88.322V88.2317V88.1412V88.0505V87.9597V87.8687V87.7775V87.6862V87.5947V87.5031V87.4113V87.3194V87.2272V87.135V87.0426V86.95V86.8573V86.7644V86.6714V86.5782V86.4849V86.3915V86.2979V86.2041V86.1103V86.0162V85.9221V85.8278V85.7333V85.6388V85.5441V85.4492V85.3542V85.2591V85.1639V85.0685V84.9731V84.8774V84.7817V84.6858V84.5898V84.4937V84.3975V84.3011V84.2047V84.1081V84.0114V83.9145V83.8176V83.7206V83.6234V83.5261V83.4287V83.3313V83.2337V83.136V83.0381V82.9402V82.8422V82.7441V82.6459V82.5476V82.4492V82.3506V82.252V82.1533V82.0545V81.9556V81.8567V81.7576V81.6584V81.5592V81.4599V81.3604V81.2609V81.1613V81.0617V80.9619V80.8621V80.7622V80.6622V80.5621V80.462V80.3618V80.2615V80.1611V80.0607V79.9602V79.8596V79.759V79.6583V79.5575V79.4567V79.3558V79.2549V79.1538V79.0528V78.9516V78.8504V78.7492V78.6479V78.5465V78.4451V78.3437V78.2422V78.1406V78.039V77.9373V77.8357V77.7339V77.6321V77.5303V77.4284V77.3265V77.2246V77.1226V77.0206V76.9185V76.8164V76.7143V76.6121V76.5099V76.4077V76.3055V76.2032V76.1009V75.9986V75.8962V75.7938V75.6914V75.589V75.4866V75.3841V75.2817V75.1792V75.0767V74.9742V74.8716V74.7691V74.6665V74.564V74.4614V74.3588V74.2562V74.1537V74.0511V73.9485V73.8459V73.7433V73.6407V73.5381V73.4355V73.3329V73.2304V73.1278V73.0252V72.9227V72.8201V72.7176V72.6151V72.5126V72.4101V72.3076V72.2052V72.1027V72.0003V71.8979V71.7955V71.6932V71.5908V71.4885V71.3862V71.284V71.1818V71.0796V70.9774V70.8753V70.7732V70.6711V70.5691V70.4671V70.3651V70.2632V70.1613V70.0595V69.9577V69.8559V69.7542V69.6526V69.5509V69.4494V69.3479V69.2464V69.145V69.0436V68.9423V68.841V68.7398V68.6387V68.5376V68.4366V68.3356V68.2347V68.1339V68.0331V67.9324V67.8317V67.7311V67.6306V67.5302V67.4298V67.3295V67.2293V67.1291V67.029V66.929V66.8291V66.7293V66.6295V66.5298V66.4302V66.3307V66.2313V66.1319V66.0326V65.9335V65.8344V65.7354V65.6365V65.5377V65.4389V65.3403V65.2418V65.1433V65.045V64.9468V64.8486V64.7506V64.6527V64.5548V64.4571V64.3595V64.262V64.1646V64.0673V63.9701V63.873V63.7761V63.6792V63.5825V63.4859V63.3894V63.293V63.1967V63.1006V63.0046V62.9087V62.8129V62.7173V62.6218V62.5264V62.4311V62.336V62.241V62.1461V62.0514V61.9568V61.8623V61.768V61.6738V61.5797V61.4858V61.3921V61.2984V61.205V61.1116V61.0184V60.9254V60.8325V60.7397V60.6471V60.5547V60.4624V60.3703V60.2783V60.1864V60.0948V60.0033V59.9119V59.8207V59.7297V59.6388V59.5481V59.4576V59.3672V59.277V59.187V59.0971V59.0074V58.9179C100 56.7043 98.2056 54.9099 95.992 54.9099C93.7784 54.9099 91.984 56.7043 91.984 58.9179V59.0074V59.0971V59.187V59.277V59.3672V59.4576V59.5481V59.6388V59.7297V59.8207V59.9119V60.0033V60.0948V60.1864V60.2783V60.3703V60.4624V60.5547V60.6471V60.7397V60.8325V60.9254V61.0184V61.1116V61.205V61.2984V61.3921V61.4858V61.5797V61.6738V61.768V61.8623V61.9568V62.0514V62.1461V62.241V62.336V62.4311V62.5264V62.6218V62.7173V62.8129V62.9087V63.0046V63.1006V63.1967V63.293V63.3894V63.4859V63.5825V63.6792V63.7761V63.873V63.9701V64.0673V64.1646V64.262V64.3595V64.4571V64.5548V64.6527V64.7506V64.8486V64.9468V65.045V65.1433V65.2418V65.3403V65.4389V65.5377V65.6365V65.7354V65.8344V65.9335V66.0326V66.1319V66.2313V66.3307V66.4302V66.5298V66.6295V66.7293V66.8291V66.929V67.029V67.1291V67.2293V67.3295V67.4298V67.5302V67.6306V67.7311V67.8317V67.9324V68.0331V68.1339V68.2347V68.3356V68.4366V68.5376V68.6387V68.7398V68.841V68.9423V69.0436V69.145V69.2464V69.3479V69.4494V69.5509V69.6526V69.7542V69.8559V69.9577V70.0595V70.1613V70.2632V70.3651V70.4671V70.5691V70.6711V70.7732V70.8753V70.9774V71.0796V71.1818V71.284V71.3862V71.4885V71.5908V71.6932V71.7955V71.8979V72.0003V72.1027V72.2052V72.3076V72.4101V72.5126V72.6151V72.7176V72.8201V72.9227V73.0252V73.1278V73.2304V73.3329V73.4355V73.5381V73.6407V73.7433V73.8459V73.9485V74.0511V74.1537V74.2562V74.3488L50.9018 74.3488V61.1974ZM50.9018 82.3648V101.855C50.9409 103.458 50.9944 104.589 51.4039 105.406C51.5493 105.696 51.7104 105.87 51.9486 106.008C52.2144 106.161 52.8334 106.413 54.1082 106.413C55.5693 106.413 58.0316 106.417 61.0454 106.423H61.0495C69.6819 106.438 82.8363 106.462 89.9521 106.413C91.0479 106.405 91.5217 106.24 91.6611 106.176C91.7232 106.04 91.8368 105.689 91.9068 104.926C91.9807 104.12 91.984 103.174 91.984 101.904V101.875V101.846V101.816V101.786V101.755V101.725V101.693V101.662V101.629V101.597V101.564V101.531V101.497V101.463V101.429V101.394V101.358V101.323V101.287V101.25V101.213V101.176V101.139V101.101V101.062V101.023V100.984V100.945V100.905V100.865V100.824V100.783V100.742V100.7V100.658V100.615V100.572V100.529V100.485V100.441V100.397V100.352V100.307V100.262V100.216V100.17V100.123V100.077V100.029V99.9817V99.9338V99.8855V99.8368V99.7878V99.7385V99.6888V99.6388V99.5884V99.5377V99.4866V99.4352V99.3835V99.3314V99.2789V99.2262V99.1731V99.1196V99.0659V99.0117V98.9573V98.9025V98.8474V98.792V98.7363V98.6802V98.6238V98.567V98.51V98.4526V98.3949V98.3369V98.2786V98.2199V98.1609V98.1017V98.0421V97.9822V97.922V97.8614V97.8006V97.7394V97.678V97.6162V97.5542V97.4918V97.4291V97.3661V97.3029V97.2393V97.1754V97.1113V97.0468V96.9821V96.917V96.8517V96.786V96.7201V96.6539V96.5874V96.5206V96.4536V96.3862V96.3186V96.2507V96.1825V96.114V96.0452V95.9762V95.9069V95.8373V95.7675V95.6973V95.6269V95.5563V95.4853V95.4141V95.3426V95.2709V95.1989V95.1266V95.0541V94.9813V94.9082V94.8349V94.7613V94.6875V94.6134V94.5391V94.4645V94.3897V94.3146V94.2392V94.1636V94.0878V94.0117V93.9354V93.8588V93.782V93.7049V93.6276V93.5501V93.4723V93.3943V93.316V93.2375V93.1588V93.0798V93.0007V92.9212V92.8416V92.7617V92.6816V92.6013V92.5207V92.44V92.359V92.2777V92.1963V92.1146V92.0328V91.9507V91.8684V91.7858V91.7031V91.6201V91.537V91.4536V91.37V91.2863V91.2023V91.1181V91.0337V90.949V90.8642V90.7792V90.694V90.6086V90.523V90.4372V90.3512V90.265V90.1786V90.0921V90.0053V89.9183V89.8312V89.7439V89.6563V89.5686V89.4808V89.3927V89.3044V89.216V89.1274V89.0386V88.9496V88.8605V88.7712V88.6817V88.592V88.5022V88.4122V88.322V88.2317V88.1412V88.0505V87.9597V87.8687V87.7775V87.6862V87.5947V87.5031V87.4113V87.3194V87.2272V87.135V87.0426V86.95V86.8573V86.7644V86.6714V86.5782V86.4849V86.3915V86.2979V86.2041V86.1103V86.0162V85.9221V85.8278V85.7333V85.6388V85.5441V85.4492V85.3542V85.2591V85.1639V85.0685V84.9731V84.8774V84.7817V84.6858V84.5898V84.4937V84.3975V84.3011V84.2047V84.1081V84.0114V83.9145V83.8176V83.7206V83.6234V83.5261V83.4287V83.3313V83.2337V83.136V83.0381V82.9402V82.8422V82.7441V82.6459V82.5476V82.4492V82.3648H50.9018ZM56.513 93.1862C56.513 90.9727 58.3075 89.1782 60.5211 89.1782H82.3647C84.5783 89.1782 86.3728 90.9727 86.3728 93.1862C86.3728 95.3998 84.5783 97.1942 82.3647 97.1942L60.5211 97.1943C58.3075 97.1943 56.513 95.3998 56.513 93.1862Z" fill="white"/>
</svg>
