<svg width="177" height="177" viewBox="0 0 177 177" fill="none" xmlns="http://www.w3.org/2000/svg">
<rect x="1" y="1" width="175" height="175" rx="13.3929" fill="white"/>
<line x1="28.9933" y1="99.6319" x2="80.2709" y2="123.371" stroke="#A21197" stroke-width="3" stroke-linecap="round"/>
<path fill-rule="evenodd" clip-rule="evenodd" d="M80.2246 11.4743C80.6539 10.3082 81.9473 9.71095 83.1134 10.1403L122.609 24.6817C123.775 25.111 124.372 26.4044 123.943 27.5705L119.63 39.2846L123.255 40.9326L130.901 36.0331C132.533 34.9873 134.697 36.0063 134.93 37.9305L135.998 46.7245L151.364 53.7092L155.002 55.3629L151.357 57.0015L137.975 63.018L143.19 105.997C143.44 108.05 141.331 109.574 139.459 108.693L89.1111 84.9861L88.219 85.3872L70.5115 77.4777C66.2438 79.9486 61.2881 81.3629 56.002 81.3629C42.0262 81.3629 30.3595 71.4767 27.6136 58.3162L24.6951 57.0126L21.002 55.3629L24.7027 53.7302L27.004 52.7149C27.0027 52.5978 27.002 52.4804 27.002 52.3629C27.002 36.3466 39.9857 23.3629 56.002 23.3629C62.64 23.3629 68.7571 25.5931 73.6449 29.3452L80.2246 11.4743ZM137.596 59.8989L147.719 55.3479L136.421 50.2123L137.596 59.8989ZM120.247 42.8605L118.59 42.1075L117.716 44.4824L120.247 42.8605ZM89.2458 62.7268L79.9974 68.6535C81.6374 66.2425 82.9236 63.5714 83.7812 60.7149L89.2458 62.7268Z" fill="#FF96F7"/>
<path d="M22.5019 133.404V57.6782L86.4957 86.3351V163.016L22.5019 133.404Z" fill="white" stroke="#0C9D73" stroke-width="3"/>
<path d="M153.502 133.404V57.678L89.502 86.3351V163.016L153.502 133.404Z" fill="white" stroke="#0C9D73" stroke-width="3"/>
<line x1="27.5019" y1="67.3629" x2="27.5019" y2="86.3629" stroke="#A21197"/>
<line x1="81.502" y1="133.363" x2="81.502" y2="152.363" stroke="#A21197"/>
<path d="M149.002 109.363V128.363" stroke="#A21197"/>
<line x1="94.502" y1="90.3629" x2="94.502" y2="109.363" stroke="#A21197"/>
<line x1="22.205" y1="97.906" x2="85.205" y2="125.906" stroke="#0C9D73"/>
<line x1="90.7956" y1="125.907" x2="154.796" y2="96.9075" stroke="#0C9D73"/>
<line x1="23.4197" y1="59.0881" x2="48.4197" y2="97.0881" stroke="#0C9D73"/>
<line x1="47.8777" y1="96.8786" x2="86.8777" y2="86.8786" stroke="#0C9D73"/>
<line x1="88.1067" y1="86.874" x2="130.107" y2="95.874" stroke="#0C9D73"/>
<line x1="129.575" y1="96.1022" x2="151.575" y2="60.1022" stroke="#0C9D73"/>
<path d="M34.502 51.3629C35.0019 46.1962 38.6019 34.9629 49.002 31.3629" stroke="white"/>
<path d="M79.002 28.2204L82.002 20.7204C82.3353 18.7204 84.502 15.5204 90.502 18.7204" stroke="white"/>
<path d="M103.002 60.3629L132.002 41.3629" stroke="white"/>
</svg>
